<svg width="20" height="20" fill="none" xmlns="http://www.w3.org/2000/svg"><g clip-path="url(#a)" stroke="#D8D8D8" stroke-width="2" stroke-linecap="round" stroke-linejoin="round"><path d="M10 12.5a2.5 2.5 0 1 0 0-5 2.5 2.5 0 0 0 0 5z"/><path d="M16.167 12.5a1.375 1.375 0 0 0 .275 1.517l.05.05a1.666 1.666 0 0 1-1.18 2.847 1.667 1.667 0 0 1-1.179-.489l-.05-.05a1.374 1.374 0 0 0-1.516-.275 1.375 1.375 0 0 0-.834 1.258v.142a1.667 1.667 0 0 1-3.333 0v-.075a1.375 1.375 0 0 0-.9-1.258 1.375 1.375 0 0 0-1.517.275l-.05.05a1.667 1.667 0 1 1-2.358-2.359l.05-.05a1.375 1.375 0 0 0 .275-1.516 1.375 1.375 0 0 0-1.258-.834H2.5a1.667 1.667 0 1 1 0-3.333h.075a1.375 1.375 0 0 0 1.258-.9 1.375 1.375 0 0 0-.275-1.516l-.05-.05a1.667 1.667 0 1 1 2.359-2.359l.05.05a1.375 1.375 0 0 0 1.516.275H7.5a1.375 1.375 0 0 0 .833-1.258V2.5a1.667 1.667 0 0 1 3.334 0v.075a1.376 1.376 0 0 0 .833 1.258 1.375 1.375 0 0 0 1.517-.275l.05-.05a1.666 1.666 0 0 1 2.72 1.818 1.666 1.666 0 0 1-.362.54l-.05.05a1.375 1.375 0 0 0-.275 1.518V7.5a1.375 1.375 0 0 0 1.258.834h.142a1.667 1.667 0 0 1 0 3.333h-.075a1.375 1.375 0 0 0-1.258.833z"/></g><defs><clipPath id="a"><path fill="#fff" d="M0 0h20v20H0z"/></clipPath></defs></svg>