<svg width="139" height="90" viewBox="0 0 139 90" fill="none" xmlns="http://www.w3.org/2000/svg">
<mask id="mask0_184_481" style="mask-type:luminance" maskUnits="userSpaceOnUse" x="46" y="0" width="47" height="40">
<path d="M92.0909 0H46.9023V40H92.0909V0Z" fill="white"/>
</mask>
<g mask="url(#mask0_184_481)">
<mask id="mask1_184_481" style="mask-type:luminance" maskUnits="userSpaceOnUse" x="46" y="0" width="47" height="40">
<path d="M92.0909 0H46.9023V40H92.0909V0Z" fill="white"/>
</mask>
<g mask="url(#mask1_184_481)">
<path d="M46.9023 4.44466C49.6754 4.44466 51.9235 6.43667 51.9235 8.88933V28.8893C51.9235 35.0261 57.5427 40 64.4754 40C71.4088 40 77.028 35.0261 77.028 28.8893V13.3333C77.028 12.1053 78.1509 11.1113 79.5382 11.1113C80.9263 11.1113 82.0492 12.1053 82.0492 13.3333V24.444C82.0492 29.3486 86.5454 33.3333 92.091 33.3333V28.8893C89.3178 28.8893 87.0697 26.8973 87.0697 24.444V13.3333C87.0697 9.65065 83.6963 6.66668 79.5382 6.66668C75.3801 6.66668 72.0068 9.65065 72.0068 13.3333V28.8893C72.0068 32.5713 68.6335 35.556 64.4754 35.556C60.3173 35.556 56.944 32.5713 56.944 28.8893V8.88933C56.944 3.982 52.4477 0 46.9023 0V4.44466Z" fill="white"/>
</g>
</g>
<mask id="mask2_184_481" style="mask-type:luminance" maskUnits="userSpaceOnUse" x="0" y="54" width="139" height="36">
<path d="M138.995 54H0V89.2969H138.995V54Z" fill="white"/>
</mask>
<g mask="url(#mask2_184_481)">
<mask id="mask3_184_481" style="mask-type:luminance" maskUnits="userSpaceOnUse" x="0" y="54" width="139" height="36">
<path d="M138.995 54H0V89.2969H138.995V54Z" fill="white"/>
</mask>
<g mask="url(#mask3_184_481)">
<mask id="mask4_184_481" style="mask-type:luminance" maskUnits="userSpaceOnUse" x="0" y="54" width="139" height="36">
<path d="M138.995 54H0V89.2969H138.995V54Z" fill="white"/>
</mask>
<g mask="url(#mask4_184_481)">
<mask id="mask5_184_481" style="mask-type:luminance" maskUnits="userSpaceOnUse" x="0" y="54" width="139" height="36">
<path d="M138.995 54H0V89.2969H138.995V54Z" fill="white"/>
</mask>
<g mask="url(#mask5_184_481)">
<path d="M12.4963 88.9746H4.65797V60.979H0.00976562V54.323H17.1449V60.979H12.4963V88.9746ZM25.8947 88.9746H18.2841L22.0665 54.323H35.3279L39.0648 88.9746H31.6366L31.0899 83.3673H26.3503L25.8947 88.9746ZM28.4009 60.2125L26.9429 77.8408H30.4974L28.7656 60.2125H28.4009ZM50.7313 89.2974C47.1768 89.2974 44.6095 88.5172 43.0298 86.9574C41.4436 85.3977 40.6509 82.8833 40.6509 79.4141V76.0256H48.3615V80.3419C48.3615 82.063 48.9814 82.9236 50.221 82.9236C50.9258 82.9236 51.4149 82.7407 51.6882 82.375C51.9619 82.0146 52.0984 81.4041 52.0984 80.5436C52.0984 79.4141 51.9467 78.4782 51.6427 77.736C51.339 76.9991 50.9501 76.3806 50.4762 75.8804C50.0023 75.3855 49.1577 74.6137 47.9423 73.5648L44.5792 70.5797C41.9604 68.3207 40.6509 65.8197 40.6509 63.0766C40.6509 60.1184 41.4194 57.8648 42.9566 56.3157C44.4939 54.7721 46.7363 54.0002 49.6831 54.0002C53.2073 54.0002 55.7412 54.8259 57.2845 56.4771C58.84 58.1337 59.6179 60.7235 59.6179 64.2465H51.6427L51.5881 61.8664C51.5881 61.4092 51.4452 61.0462 51.1597 60.7773C50.8742 60.5083 50.4732 60.3739 49.9564 60.3739C49.3491 60.3739 48.893 60.5218 48.5894 60.8176C48.2857 61.1134 48.1337 61.5168 48.1337 62.0278C48.1337 63.1573 48.8627 64.3271 50.3211 65.5373L54.8783 69.4099C55.9417 70.3243 56.8197 71.1902 57.5124 72.0078C58.2171 72.8307 58.7824 73.7988 59.2077 74.9122C59.6331 76.0309 59.8458 77.3568 59.8458 78.8897C59.8458 82.3051 59.138 84.8922 57.722 86.651C56.3125 88.4152 53.9821 89.2974 50.7313 89.2974ZM70.2272 88.9746H62.4343V54.323H70.1813V68.1997L73.8271 54.323H81.711L77.3361 70.1763L82.6228 88.9746H74.5107L70.2272 72.1933V88.9746ZM91.1446 88.9746H83.5796V54.323H91.1446V88.9746ZM102.173 88.9746H94.2889V54.323H109.966V61.0596H102.173V66.5861H109.555V73.2422H102.173V88.9746ZM119.664 88.9746H112.099V54.323H119.664V88.9746ZM138.986 88.9746H122.808V54.323H138.485V61.0193H130.783V67.756H138.166V74.291H130.783V82.2378H138.986V88.9746Z" fill="white"/>
</g>
</g>
</g>
</g>
</svg>
