<svg width="512" height="119" viewBox="0 0 512 119" fill="none" xmlns="http://www.w3.org/2000/svg">
<g clip-path="url(#clip0_18_140)">
<g clip-path="url(#clip1_18_140)">
<g clip-path="url(#clip2_18_140)">
<g clip-path="url(#clip3_18_140)">
<g clip-path="url(#clip4_18_140)">
<g clip-path="url(#clip5_18_140)">
<g clip-path="url(#clip6_18_140)">
<g clip-path="url(#clip7_18_140)">
<path d="M177.346 111.229H156.67V27.8035H144.409V7.96893H189.608V27.8035H177.346V111.229ZM212.688 111.229H192.613L202.59 7.96893H237.571L247.428 111.229H227.834L226.392 94.5197H213.89L212.688 111.229ZM219.299 25.5195L215.453 78.051H224.829L220.261 25.5195H219.299ZM278.202 112.191C268.826 112.191 262.054 109.866 257.887 105.218C253.703 100.57 251.612 93.0772 251.612 82.7392V72.6416H271.951V85.504C271.951 90.633 273.586 93.1974 276.856 93.1974C278.715 93.1974 280.005 92.6525 280.726 91.5626C281.448 90.4887 281.808 88.6695 281.808 86.1051C281.808 82.7392 281.408 79.9503 280.606 77.7385C279.805 75.5427 278.779 73.6995 277.529 72.2089C276.279 70.7343 274.051 68.4343 270.845 65.3088L261.974 56.4133C255.066 49.6816 251.612 42.2286 251.612 34.0544C251.612 25.239 253.639 18.5233 257.694 13.9073C261.749 9.30727 267.664 7.00726 275.437 7.00726C284.733 7.00726 291.417 9.46755 295.488 14.3881C299.591 19.3247 301.643 27.0422 301.643 37.5405H280.606L280.462 30.4481C280.462 29.0857 280.085 28.0038 279.332 27.2024C278.579 26.401 277.521 26.0003 276.158 26.0003C274.556 26.0003 273.353 26.4411 272.552 27.3227C271.751 28.2042 271.35 29.4063 271.35 30.9289C271.35 34.2948 273.273 37.7809 277.12 41.3872L289.141 52.9273C291.946 55.652 294.262 58.2325 296.089 60.6688C297.948 63.121 299.439 66.0061 300.561 69.3238C301.683 72.6576 302.244 76.6085 302.244 81.1765C302.244 91.3542 300.377 99.0636 296.642 104.305C292.924 109.562 286.777 112.191 278.202 112.191ZM329.628 111.229H309.072V7.96893H329.507V49.321L339.124 7.96893H359.92L348.38 55.2112L362.325 111.229H340.927L329.628 61.2217V111.229ZM384.804 111.229H364.849V7.96893H384.804V111.229ZM413.894 111.229H393.098V7.96893H434.45V28.0439H413.894V44.5126H433.368V64.3472H413.894V111.229ZM460.031 111.229H440.076V7.96893H460.031V111.229ZM511 111.229H468.325V7.96893H509.677V27.9237H489.362V47.9987H508.836V67.4726H489.362V91.1539H511V111.229Z" fill="#111111"/>
</g>
</g>
</g>
</g>
<g clip-path="url(#clip8_18_140)">
<g clip-path="url(#clip9_18_140)">
<path d="M0.355713 13.2448C7.67049 13.2448 13.6006 19.1809 13.6006 26.4897V86.0886C13.6006 104.376 28.4228 119.198 46.7098 119.198C64.9987 119.198 79.821 104.376 79.821 86.0886V39.7326C79.821 36.0732 82.783 33.1111 86.4424 33.1111C90.1038 33.1111 93.0658 36.0732 93.0658 39.7326V72.8418C93.0658 87.4574 104.926 99.3315 119.554 99.3315V86.0886C112.239 86.0886 106.309 80.1526 106.309 72.8418V39.7326C106.309 28.7584 97.4106 19.8663 86.4424 19.8663C75.4742 19.8663 66.5761 28.7584 66.5761 39.7326V86.0886C66.5761 97.0608 57.678 105.955 46.7098 105.955C35.7416 105.955 26.8435 97.0608 26.8435 86.0886V26.4897C26.8435 11.8661 14.9833 -6.10352e-05 0.355713 -6.10352e-05V13.2448Z" fill="#526834"/>
</g>
</g>
</g>
</g>
</g>
</g>
<defs>
<clipPath id="clip0_18_140">
<rect width="512" height="118.784" fill="white"/>
</clipPath>
<clipPath id="clip1_18_140">
<rect width="512" height="118.784" fill="white" transform="translate(-0.310303 0.206909)"/>
</clipPath>
<clipPath id="clip2_18_140">
<rect width="510.668" height="119.198" fill="white" transform="translate(0.355713 -6.10352e-05)"/>
</clipPath>
<clipPath id="clip3_18_140">
<rect width="510.668" height="119.198" fill="white" transform="translate(0.355713 -6.10352e-05)"/>
</clipPath>
<clipPath id="clip4_18_140">
<rect width="366.639" height="105.183" fill="white" transform="translate(144.385 7.00726)"/>
</clipPath>
<clipPath id="clip5_18_140">
<rect width="366.639" height="105.183" fill="white" transform="translate(144.385 7.00726)"/>
</clipPath>
<clipPath id="clip6_18_140">
<rect width="366.639" height="105.183" fill="white" transform="translate(144.385 7.00726)"/>
</clipPath>
<clipPath id="clip7_18_140">
<rect width="366.639" height="105.183" fill="white" transform="translate(144.385 7.00726)"/>
</clipPath>
<clipPath id="clip8_18_140">
<rect width="119.198" height="119.198" fill="white" transform="translate(0.355713 -6.10352e-05)"/>
</clipPath>
<clipPath id="clip9_18_140">
<rect width="119.198" height="119.198" fill="white" transform="translate(0.355713 -6.10352e-05)"/>
</clipPath>
</defs>
</svg>
