<svg width="64" height="64" viewBox="0 0 64 64" fill="none" xmlns="http://www.w3.org/2000/svg">
<g clip-path="url(#clip0_18_203)">
<g clip-path="url(#clip1_18_203)">
<g clip-path="url(#clip2_18_203)">
<g clip-path="url(#clip3_18_203)">
<g clip-path="url(#clip4_18_203)">
<g clip-path="url(#clip5_18_203)">
<g clip-path="url(#clip6_18_203)">
<g clip-path="url(#clip7_18_203)">
<path d="M6.25 12.0015C9.42638 12.0015 12.0015 14.5792 12.0015 17.753V43.6333C12.0015 51.5743 18.4379 58.0108 26.3789 58.0108C34.3207 58.0108 40.7572 51.5743 40.7572 43.6333V23.5036C40.7572 21.9145 42.0434 20.6283 43.6325 20.6283C45.2224 20.6283 46.5087 21.9145 46.5087 23.5036V37.881C46.5087 44.2277 51.6588 49.384 58.0108 49.384V43.6333C54.8344 43.6333 52.2593 41.0557 52.2593 37.881V23.5036C52.2593 18.7381 48.3953 14.8768 43.6325 14.8768C38.8696 14.8768 35.0057 18.7381 35.0057 23.5036V43.6333C35.0057 48.3979 31.1417 52.2601 26.3789 52.2601C21.616 52.2601 17.7521 48.3979 17.7521 43.6333V17.753C17.7521 11.4028 12.6019 6.25 6.25 6.25V12.0015Z" fill="#526834"/>
</g>
</g>
</g>
</g>
</g>
</g>
</g>
</g>
<defs>
<clipPath id="clip0_18_203">
<rect width="51.5" height="51.5" fill="white" transform="translate(6.38037 6.38037)"/>
</clipPath>
<clipPath id="clip1_18_203">
<rect width="51.7608" height="51.7608" fill="white" transform="translate(6.25 6.25)"/>
</clipPath>
<clipPath id="clip2_18_203">
<rect width="51.7608" height="51.7608" fill="white" transform="translate(6.25 6.25)"/>
</clipPath>
<clipPath id="clip3_18_203">
<rect width="51.7608" height="51.7608" fill="white" transform="translate(6.25 6.25)"/>
</clipPath>
<clipPath id="clip4_18_203">
<rect width="51.7608" height="51.7608" fill="white" transform="translate(6.25 6.25)"/>
</clipPath>
<clipPath id="clip5_18_203">
<rect width="51.7608" height="51.7608" fill="white" transform="translate(6.25 6.25)"/>
</clipPath>
<clipPath id="clip6_18_203">
<rect width="51.7608" height="51.7608" fill="white" transform="translate(6.25 6.25)"/>
</clipPath>
<clipPath id="clip7_18_203">
<rect width="51.7608" height="51.7608" fill="white" transform="translate(6.25 6.25)"/>
</clipPath>
</defs>
</svg>
